<svg width="20" height="21" viewBox="0 0 20 21" fill="none" xmlns="http://www.w3.org/2000/svg">
<path fill-rule="evenodd" clip-rule="evenodd" d="M8.11874 7.56407L12.8437 10.5031L8.11874 13.4421V7.56407ZM8.22463 6.18748C7.60365 5.96239 6.86874 6.3919 6.86874 7.12498V13.875C6.86874 14.6934 7.77633 15.1321 8.4256 14.7233L13.9345 11.2967L13.9388 11.2939C14.5141 10.9227 14.5141 10.0835 13.9388 9.71229L13.9345 9.70949L8.27227 6.18748H8.22463Z" fill="#146FF4"/>
<path fill-rule="evenodd" clip-rule="evenodd" d="M10 3C5.85786 3 2.5 6.35786 2.5 10.5C2.5 14.6421 5.85786 18 10 18C14.1421 18 17.5 14.6421 17.5 10.5C17.5 6.35786 14.1421 3 10 3ZM1.25 10.5C1.25 5.66751 5.16751 1.75 10 1.75C14.8325 1.75 18.75 5.66751 18.75 10.5C18.75 15.3325 14.8325 19.25 10 19.25C5.16751 19.25 1.25 15.3325 1.25 10.5Z" fill="#146FF4"/>
</svg>
