<svg width="16" height="17" viewBox="0 0 16 17" fill="none" xmlns="http://www.w3.org/2000/svg">
<path d="M13.955 2.66989C14.175 2.44989 14.565 2.61989 14.575 2.93989H14.57L15.025 7.15489C15.03 7.35489 14.875 7.50989 14.675 7.50489L10.46 7.04989C10.14 7.04489 9.96997 6.64989 10.19 6.42989L11.54 5.07989C10.73 4.23989 9.56997 3.49989 7.99997 3.49989C5.56997 3.49989 3.49997 5.26989 3.07997 7.61489L1.09497 7.35489C1.64497 4.02989 4.56997 1.49989 7.99997 1.50489C10.24 1.50489 11.855 2.52989 12.96 3.66489L13.955 2.66989Z" fill="#146FF4"/>
<path d="M4.47498 11.9348C5.28498 12.7648 6.43998 13.4998 7.99998 13.4998C10.445 13.4998 12.53 11.7048 12.93 9.33484L14.91 9.59484C14.38 12.9448 11.45 15.4998 7.99998 15.4998C5.76998 15.4998 4.15998 14.4848 3.05498 13.3548L2.05998 14.3498C1.83998 14.5698 1.44998 14.3998 1.43998 14.0798L0.984981 9.86484C0.979981 9.66484 1.13498 9.50984 1.33498 9.51484L5.54998 9.96984C5.86998 9.97484 6.03998 10.3698 5.81998 10.5898L4.47498 11.9348Z" fill="#146FF4"/>
</svg>
